# xmcd
#
# Track frame offsets:
# 150
# 16142
# 34737
# 48107
# 61595
# 75637
# 89450
# 101992
# 123135
# 137605
# 156261
# 169624
# 189674
# 209262
#
# Disc length: 3025 seconds
#
#
# Revision: 0
# Processed by: cddbd v1.5.2PL0 Copyright (c) Steve Scherf et al.
# Submitted via: FreeRIP 2.95 
#
DISCID=ac0bcf0e
DTITLE=Daniel - Meu Reino Encantado-Warner 30 Anos
DYEAR=2006
DGENRE=Country
TTITLE0=Meu Reino Encantado
TTITLE1=Desatino
TTITLE2=Encanto da Natureza
TTITLE3=Moreninha Linda
TTITLE4=Cabelo Loiro
TTITLE5=Mercedita
TTITLE6=Mala Amarela
TTITLE7=Dia de Visita
TTITLE8=Cuitelinho
TTITLE9=Terra Tombada
TTITLE10=Paixão Dupla
TTITLE11=Pout-Pourri: Pagodes
TTITLE12=Sertanejo de Coração
TTITLE13=Mágoa de Boiadeiro
EXTD=
EXTT0=P.Esp.: José Camillo
EXTT1=P.Esp.: Rionegro and Solimões
EXTT2=P.Esp.: José Camillo
EXTT3=P.Esp.: Tinoco
EXTT4=P.Esp.: José Camillo
EXTT5=P.Esp.: Perla
EXTT6=P.Esp.: José Camillo
EXTT7=P.Esp.: Moacyr Franco
EXTT8=P.Esp.: Pena Branca
EXTT9=P.Esp.: Chitãozinho and Xororó
EXTT10=P.Esp.: Gino and Geno e Borghettinho
EXTT11=P.Esp.: Cézar and Paulinho
EXTT12=P.Esp.: Bruno and Marrone
EXTT13=P.Esp.: Pedro Bento and Zé da Estrada
PLAYORDER=
